# xmcd
#
# Track frame offsets: 
#        150
#        18027
#        32962
#        55550
#
# Disc length: 989 seconds
#
# Revision: 1
# Processed by: cddbd v1.5.2PL0 Copyright (c) Steve Scherf et al.
# Submitted via: ExactAudioCopy v0.95a5
#
DISCID=2303db04
DTITLE=Journey - When you love a woman
DYEAR=1996
DGENRE=AOR
TTITLE0=When you love a woman
TTITLE1=Open Arms
TTITLE2=Who's crying now
TTITLE3=Don't stop Believin
EXTD=
EXTT0=
EXTT1=
EXTT2=
EXTT3=
PLAYORDER=
